<?xml version="1.0" encoding="UTF-8" standalone="no"?>
<!-- Created with Inkscape (http://www.inkscape.org/) -->

<svg
   xmlns:dc="http://purl.org/dc/elements/1.1/"
   xmlns:cc="http://creativecommons.org/ns#"
   xmlns:rdf="http://www.w3.org/1999/02/22-rdf-syntax-ns#"
   xmlns:svg="http://www.w3.org/2000/svg"
   xmlns="http://www.w3.org/2000/svg"
   xmlns:sodipodi="http://sodipodi.sourceforge.net/DTD/sodipodi-0.dtd"
   xmlns:inkscape="http://www.inkscape.org/namespaces/inkscape"
   width="1920"
   height="1080"
   viewBox="0 0 507.99999 285.75001"
   version="1.1"
   id="svg8"
   sodipodi:docname="lockscreen.svg"
   inkscape:version="0.92.4 5da689c313, 2019-01-14">
  <defs
     id="defs2" />
  <sodipodi:namedview
     id="base"
     pagecolor="#ffffff"
     bordercolor="#666666"
     borderopacity="1.0"
     inkscape:pageopacity="0"
     inkscape:pageshadow="2"
     inkscape:zoom="0.7"
     inkscape:cx="953.71304"
     inkscape:cy="471.37333"
     inkscape:document-units="mm"
     inkscape:current-layer="layer1"
     showgrid="false"
     units="px"
     inkscape:window-width="1920"
     inkscape:window-height="1080"
     inkscape:window-x="0"
     inkscape:window-y="0"
     inkscape:window-maximized="0" />
  <metadata
     id="metadata5">
    <rdf:RDF>
      <cc:Work
         rdf:about="">
        <dc:format>image/svg+xml</dc:format>
        <dc:type
           rdf:resource="http://purl.org/dc/dcmitype/StillImage" />
        <dc:title></dc:title>
      </cc:Work>
    </rdf:RDF>
  </metadata>
  <g
     inkscape:label="Layer 1"
     inkscape:groupmode="layer"
     id="layer1"
     transform="translate(0,-11.249983)">
    <rect
       style="fill:#808080;fill-opacity:1;stroke:none;stroke-width:0.79421127;stroke-miterlimit:4;stroke-dasharray:none;stroke-opacity:1"
       id="rect815"
       width="508"
       height="285.75"
       x="0"
       y="11.249983" />
    <path
       id="path869"
       d="m 260.42407,152.00835 h -1.1324 v -3.175 c 0,0 0,-5.29168 -5.29168,-5.29168 -5.29165,0 -5.29165,5.29168 -5.29165,5.29168 v 3.175 h -1.13244 a 2.0425849,2.0425824 0 0 0 -2.04256,2.0426 v 8.62539 a 2.0425849,2.0425824 0 0 0 2.04256,2.032 h 12.84817 a 2.0425849,2.0425824 0 0 0 2.0426,-2.04256 v -8.61483 a 2.0425849,2.0425824 0 0 0 -2.0426,-2.0426 z m -6.42408,8.46668 a 2.1166683,2.1166658 0 1 1 2.11668,-2.11669 2.1166683,2.1166658 0 0 1 -2.11668,2.11669 z m 3.175,-8.46668 h -6.35001 v -2.64584 c 0,-1.58749 0,-3.70416 3.17501,-3.70416 3.175,0 3.175,2.11667 3.175,3.70416 z"
       inkscape:connector-curvature="0"
       style="stroke-width:1.0583334;fill:#404040;fill-opacity:1" />
  </g>
</svg>
